<svg width="166" height="30" fill="none" xmlns="http://www.w3.org/2000/svg"><path d="M131.419.825v27.987h-5.049V5.578h-3.532V.825h8.581zm24.126 7.624a11.255 11.255 0 00-.462-1.815 7.488 7.488 0 00-.826-1.717c-.33-.56-.759-1.089-1.221-1.584-.495-.462-.99-.858-1.518-1.22a9.464 9.464 0 00-1.716-.925c-.594-.264-1.221-.495-1.881-.594a9.745 9.745 0 00-1.947-.198c-1.42 0-2.707.231-3.862.726a8.68 8.68 0 00-3.069 2.211 9.441 9.441 0 00-2.013 3.268 11.292 11.292 0 00-.66 3.861c0 1.221.198 2.41.594 3.465a9.903 9.903 0 001.749 2.938c.825.89 1.716 1.55 2.772 1.98 1.023.429 2.211.627 3.465.594h.958l-6.172 9.406h5.908l7.425-11.122c.066-.1.099-.198.165-.297.066-.1.132-.165.198-.231.033-.1.099-.198.165-.297.066-.1.099-.165.165-.231s.099-.165.165-.264c.066-.1.099-.165.198-.297.066-.066.099-.165.165-.231.066-.1.099-.198.165-.297.198-.364.396-.76.562-1.189a8.79 8.79 0 00.396-1.22c.132-.43.231-.859.297-1.32.066-.463.099-.925.099-1.453-.099-.693-.165-1.32-.264-1.947zm-5.182 3.366c-.198.561-.528 1.09-.957 1.617-.429.495-.924.825-1.485 1.09a4.686 4.686 0 01-1.815.362c-.693 0-1.354-.098-1.882-.33a4.229 4.229 0 01-1.485-1.056c-.429-.495-.759-1.023-.957-1.584a5.928 5.928 0 01-.33-1.881c0-.594.099-1.188.33-1.716a4.695 4.695 0 01.957-1.518c.429-.495.924-.825 1.452-1.09a5.051 5.051 0 011.75-.428c.66 0 1.287.132 1.848.33a4.697 4.697 0 011.551 1.023 4.57 4.57 0 011.023 1.518c.231.56.33 1.188.33 1.848-.033.66-.132 1.254-.33 1.815zM159.67.627v.891h-.957v4.324h-.957V1.518h-.99v-.89h2.904zm6.007 0v5.215h-.958V1.947l-1.353 3.895h-.825l-1.353-3.895v3.895h-.957V.627h1.32l1.386 3.96 1.386-3.96h1.354z" fill="#424C49"/><path d="M46.205.825c-4.357 0-8.68.033-13.004.033v27.624h5.215v-8.119h7.789c13.531 0 13.498-19.538 0-19.538zm0 14.753h-7.822V5.776h7.822c6.633 0 6.666 9.802 0 9.802z" fill="#037BC0"/><path d="M81.023 23.333H60.462v5.116h20.561v-5.116zm-.528-11.056H60.462v4.852h20.033v-4.852zM81.023.858H60.462v5.05h20.561V.858z" fill="#424C49"/><path d="M108.68.825v27.657h-3.234v.033L90.924 9.868v18.614H85.71V.858h4.224l13.531 17.129V.825h5.215z" fill="#037BC0"/><path d="M14.983 0C6.733 0 0 6.7 0 14.983c0 8.284 6.733 14.984 14.983 14.984 8.284 0 14.984-6.7 14.984-14.983C30 6.7 23.267 0 14.984 0zm0 25.05c-5.544 0-10.066-4.522-10.066-10.067 0-5.577 4.522-10.066 10.066-10.066 5.578 0 10.1 4.522 10.1 10.066 0 5.578-4.522 10.066-10.1 10.066z" fill="#424C49"/><path d="M19.571 15.776a6.518 6.518 0 01-.231.858 4.673 4.673 0 01-4.357 3.003c-1.88 0-3.53-1.155-4.257-2.772a.902.902 0 00.264-.627.966.966 0 00-.627-.891.964.964 0 00-.297-.066.913.913 0 00-.528.164.883.883 0 00-.396.76c0 .495.363.89.825.924a5.503 5.503 0 005.05 3.333 5.477 5.477 0 005.247-3.861h2.08c-.76 3.333-3.763 5.841-7.328 5.841-3.465.066-6.402-2.31-7.26-5.478a.876.876 0 00.363-.726.966.966 0 00-.627-.891 1.173 1.173 0 00-.33-.066.997.997 0 00-.528.164.929.929 0 00-.43.793c0 .429.298.792.694.924.957 3.564 4.224 6.237 8.085 6.237a8.327 8.327 0 008.185-6.7c.066-.263.1-.56.132-.857h-3.729v-.066zm-9.01.56a.526.526 0 01-.495.397c-.132 0-.231-.033-.297-.1a.47.47 0 01-.198-.395c0-.066.033-.165.066-.231a.517.517 0 01.462-.297c.165 0 .297.066.396.165.066.099.132.198.132.363-.066.033-.066.066-.066.099zm-2.937.1a.517.517 0 01-.462.297.53.53 0 01-.363-.165c-.1-.1-.132-.198-.132-.363 0-.066.033-.165.066-.231a.518.518 0 01.462-.297c.165 0 .297.066.363.165.099.099.132.198.132.363a.47.47 0 01-.066.23z" fill="#037BC0"/><path d="M23.07 12.871c-.958-3.597-4.192-6.237-8.087-6.237a8.327 8.327 0 00-8.184 6.7 6.682 6.682 0 00-.132.857h3.729c.066-.297.132-.594.231-.858a4.673 4.673 0 014.356-3.003c1.882 0 3.532 1.155 4.258 2.772a.902.902 0 00-.264.627c0 .396.264.76.627.892.099.032.198.066.297.066a.912.912 0 00.528-.166.883.883 0 00.396-.759c0-.495-.363-.89-.825-.924a5.503 5.503 0 00-5.05-3.333 5.477 5.477 0 00-5.247 3.861h-2.08c.76-3.333 3.763-5.841 7.327-5.841a7.476 7.476 0 017.228 5.544.876.876 0 00-.363.726c0 .396.264.76.627.892.1.033.231.066.33.066a.997.997 0 00.528-.165.929.929 0 00.43-.793.872.872 0 00-.66-.924zm-3.631.76a.526.526 0 01.495-.397c.132 0 .231.033.297.1a.47.47 0 01.198.395.612.612 0 01-.066.231.517.517 0 01-.462.297.547.547 0 01-.396-.165c-.066-.099-.132-.198-.132-.363.066 0 .066-.033.066-.099zm3.861.362a.517.517 0 01-.462.297c-.165 0-.297-.066-.363-.165-.099-.099-.132-.198-.132-.363 0-.066.033-.165.066-.23a.518.518 0 01.462-.298.53.53 0 01.363.165c.1.1.132.198.132.363-.033.1-.033.165-.066.231z" fill="#424C49"/></svg>